<svg xmlns="http://www.w3.org/2000/svg" width="600" height="200"><g fill="#3E444D"><path d="M171.148 135.972l-20.055-33.971h-15.963v33.971h-15.962v-90.998h39.974c18.009 0 29.878 11.597 29.878 28.514 0 16.098-10.642 24.967-21.692 26.74l22.375 35.744h-18.555zm1.5-62.621c0-8.731-6.548-14.325-15.553-14.325h-21.965v28.923h21.965c9.005 0 15.553-5.731 15.553-14.598z"/><path d="M205.115 90.541c0-27.149 19.236-47.067 46.522-47.067 27.149 0 46.522 19.918 46.522 47.067 0 27.15-19.373 47.068-46.522 47.068-27.286 0-46.522-19.918-46.522-47.068zm76.673 0c0-18.826-11.869-32.879-30.15-32.879-18.418 0-30.151 14.053-30.151 32.879 0 18.691 11.733 32.879 30.151 32.879 18.28-.001 30.15-14.188 30.15-32.879z"/><path d="M310.843 90.541c0-27.149 19.236-47.067 46.522-47.067 27.149 0 46.522 19.918 46.522 47.067 0 27.15-19.373 47.068-46.522 47.068-27.286 0-46.522-19.918-46.522-47.068zm76.673 0c0-18.826-11.869-32.879-30.151-32.879-18.418 0-30.15 14.053-30.15 32.879 0 18.691 11.732 32.879 30.15 32.879 18.282-.001 30.151-14.188 30.151-32.879z"/><path d="M438.809 135.972v-76.946h-27.559v-14.052h71.079v14.052h-27.559v76.946h-15.961z"/><path d="M490.649 123.148l9.004-12.416c6.14 6.686 16.099 12.688 28.786 12.688 13.098 0 18.146-6.412 18.146-12.551 0-19.1-52.935-7.23-52.935-40.656 0-15.143 13.098-26.739 33.152-26.739 14.052 0 25.648 4.638 33.971 12.824l-9.004 11.869c-7.231-7.23-16.918-10.505-26.468-10.505-9.277 0-15.279 4.639-15.279 11.324 0 17.053 52.934 6.548 52.934 40.383 0 15.143-10.777 28.24-35.198 28.24-16.782 0-28.924-6.002-37.109-14.461z"/></g><path fill="#E77552" d="M21.436 91.316v-44.654h17.356v44.654h-17.356z"/><path fill="#B6DDDA" d="M73.504 76.947v-30.285h17.356v30.285h-17.356z"/><path fill="#9BAABF" d="M56.148 111.207v-64.544h17.356v64.543h-17.356z"/><path fill="#3E444D" d="M38.792 135.972v-89.31h17.356v89.31h-17.356z"/></svg>